<svg width="375" height="280" viewBox="0 0 375 280" fill="none" xmlns="http://www.w3.org/2000/svg">
<path d="M-2.79401 278.641C0.11795 268.778 30.2826 166.261 30.1811 165.49C30.0797 164.719 32.6466 150.951 38.6532 139.475C44.6597 128 52.9999 115.216 54.045 113.653C55.6353 111.107 56.698 108.268 57.17 105.303C57.9512 101.133 66.3016 89.6474 68.9091 86.5224C71.5167 83.3974 79.3394 66.9606 79.867 64.353C80.3946 61.7454 83.5095 59.6553 87.6897 58.874C91.87 58.0928 97.6026 57.3115 97.6026 57.3115C98.6635 58.56 99.3027 60.1119 99.4289 61.7454C99.4289 64.0892 90.0335 120.167 89.516 129.563C88.9986 138.958 90.2973 144.163 86.1272 153.822C81.9571 163.481 69.6904 169.468 63.694 173.384C57.6976 177.3 58.1542 178.112 58.1542 178.112C58.1542 178.112 61.543 271.995 61.4618 279.371" fill="#EDF0F6"/>
<mask id="mask0_151_3621" style="mask-type:luminance" maskUnits="userSpaceOnUse" x="-3" y="57" width="103" height="223">
<path d="M-2.79401 278.641C0.11795 268.778 30.2826 166.261 30.1811 165.49C30.0797 164.719 32.6466 150.951 38.6532 139.475C44.6597 128 52.9999 115.216 54.045 113.653C55.6353 111.107 56.698 108.268 57.17 105.303C57.9512 101.133 66.3016 89.6474 68.9091 86.5224C71.5167 83.3974 79.3394 66.9606 79.867 64.353C80.3946 61.7454 83.5095 59.6553 87.6897 58.874C91.87 58.0928 97.6026 57.3115 97.6026 57.3115C98.6635 58.56 99.3027 60.1119 99.4289 61.7454C99.4289 64.0892 90.0335 120.167 89.516 129.563C88.9986 138.958 90.2973 144.163 86.1272 153.822C81.9571 163.481 69.6904 169.468 63.694 173.384C57.6976 177.3 58.1542 178.112 58.1542 178.112C58.1542 178.112 61.543 271.995 61.4618 279.371" fill="white"/>
</mask>
<g mask="url(#mask0_151_3621)">
<g style="mix-blend-mode:multiply" opacity="0.7">
<path d="M103.244 118.828C102.158 113.968 95.1269 116.667 95.1269 116.667C90.3387 121.863 84.444 125.916 77.8784 128.528C66.8887 132.683 56.2686 137.757 46.1309 143.696C47.2876 141.373 48.5457 139.029 49.9053 136.594C56.9163 124.195 69.315 107.484 76.2854 105.323C80.5874 104.004 84.8792 106.734 87.5578 109.047L87.8622 58.8232H87.6897C83.5095 59.6045 80.3845 61.6946 79.867 64.3022C79.3496 66.9098 71.5167 83.3364 68.9091 86.4716C66.3016 89.6068 57.9512 101.082 57.17 105.252C56.698 108.217 55.6353 111.056 54.045 113.603C53.0303 115.165 44.6496 127.939 38.6532 139.425C32.6568 150.91 30.0797 164.658 30.1811 165.439C30.2521 166.008 18.6449 208.053 11.2686 234.515C17.3563 222.542 26.8227 203.173 32.5756 188.857C34.8382 188.634 39.2214 182.505 42.8537 177.513C47.1658 171.588 53.629 169.965 66.5755 160.265C79.522 150.565 94.0615 137.081 96.2227 131.693C98.3838 126.306 104.319 123.678 103.244 118.828Z" fill="#487CD6"/>
</g>
</g>
<path d="M-2.79401 278.641C0.11795 268.778 30.2826 166.261 30.1811 165.49C30.0797 164.719 32.6466 150.951 38.6532 139.475C44.6597 128 52.9999 115.216 54.045 113.653C55.6353 111.107 56.698 108.268 57.17 105.303C57.9512 101.133 66.3016 89.6474 68.9091 86.5224C71.5167 83.3974 79.3394 66.9606 79.867 64.353C80.3946 61.7454 83.5095 59.6553 87.6897 58.874C91.87 58.0928 97.6026 57.3115 97.6026 57.3115C98.6635 58.56 99.3027 60.1119 99.4289 61.7454C99.4289 64.0892 90.0335 120.167 89.516 129.563C88.9986 138.958 90.2973 144.163 86.1272 153.822C81.9571 163.481 69.6904 169.468 63.694 173.384C57.6976 177.3 58.1542 178.112 58.1542 178.112C58.1542 178.112 61.543 271.995 61.4618 279.371" stroke="#084ABB" stroke-width="0.704597" stroke-linecap="round" stroke-linejoin="round"/>
<path d="M87.1623 121.212C87.1623 121.212 84.3011 120.948 81.4297 115.733" stroke="#084ABB" stroke-width="0.704597" stroke-linecap="round" stroke-linejoin="round"/>
<path d="M84.0372 87.5674C84.0372 87.5674 92.1542 89.1299 93.1688 95.9076" stroke="#084ABB" stroke-width="0.704597" stroke-linecap="round" stroke-linejoin="round"/>
<path d="M86.6448 66.4326C88.4402 67.7987 89.9262 69.5293 91.0051 71.5105C92.0841 73.4918 92.7316 75.6789 92.905 77.9283" stroke="#084ABB" stroke-width="0.704597" stroke-linecap="round" stroke-linejoin="round"/>
<path d="M349.654 121.232L349.015 12.9015C349.012 9.74409 347.756 6.71693 345.523 4.48526C343.289 2.25359 340.261 0.999999 337.104 1H100.038C96.8813 1 93.8541 2.2539 91.6221 4.48586C89.3901 6.71783 88.1362 9.74502 88.1362 12.9015L87.4869 121.232C87.4855 122.812 87.7956 124.376 88.3994 125.835C89.0031 127.294 89.8887 128.62 91.0054 129.737C92.1222 130.854 93.4481 131.739 94.9074 132.343C96.3668 132.947 97.9308 133.257 99.5101 133.256H337.631C339.21 133.257 340.774 132.947 342.234 132.343C343.693 131.739 345.019 130.854 346.136 129.737C347.253 128.62 348.138 127.294 348.742 125.835C349.346 124.376 349.656 122.812 349.654 121.232Z" fill="#084ABB" stroke="#2D384F" stroke-width="0.612065" stroke-linecap="round" stroke-linejoin="round"/>
<path d="M336.333 127.371L335.815 6.82373H101.326L100.819 127.371H336.333Z" fill="#EDF0F6" stroke="#2D384F" stroke-width="0.459048" stroke-linecap="round" stroke-linejoin="round"/>
<path d="M335.815 6.82373H101.326L101.306 12.8404H123.831L129.594 21.0791H335.876L335.815 6.82373Z" fill="#487CD6" stroke="#084ABB" stroke-width="0.704597" stroke-linecap="round" stroke-linejoin="round"/>
<g style="mix-blend-mode:multiply" opacity="0.5">
<path d="M335.815 30.8096L170.99 127.371H336.332L335.815 30.8096Z" fill="#487CD6"/>
</g>
<path d="M344.189 67.0649C344.202 66.0619 343.399 65.2384 342.396 65.2254C341.393 65.2125 340.57 66.015 340.557 67.018C340.544 68.0209 341.346 68.8445 342.349 68.8574C343.352 68.8704 344.176 68.0679 344.189 67.0649Z" fill="#EDF0F6"/>
<path d="M119.386 50.8685C124.749 50.8685 129.096 46.5213 129.096 41.1586C129.096 35.796 124.749 31.4487 119.386 31.4487C114.024 31.4487 109.677 35.796 109.677 41.1586C109.677 46.5213 114.024 50.8685 119.386 50.8685Z" fill="#487CD6" stroke="#084ABB" stroke-width="0.704597" stroke-linecap="round" stroke-linejoin="round"/>
<path d="M119.386 90.7938C124.749 90.7938 129.096 86.4466 129.096 81.0839C129.096 75.7213 124.749 71.374 119.386 71.374C114.024 71.374 109.677 75.7213 109.677 81.0839C109.677 86.4466 114.024 90.7938 119.386 90.7938Z" fill="#EDF0F6" stroke="#084ABB" stroke-width="0.704597" stroke-linecap="round" stroke-linejoin="round"/>
<path d="M185.743 50.8685C191.105 50.8685 195.453 46.5213 195.453 41.1586C195.453 35.796 191.105 31.4487 185.743 31.4487C180.38 31.4487 176.033 35.796 176.033 41.1586C176.033 46.5213 180.38 50.8685 185.743 50.8685Z" fill="#EDF0F6" stroke="#084ABB" stroke-width="0.704597" stroke-linecap="round" stroke-linejoin="round"/>
<path d="M185.743 90.7938C191.105 90.7938 195.453 86.4466 195.453 81.0839C195.453 75.7213 191.105 71.374 185.743 71.374C180.38 71.374 176.033 75.7213 176.033 81.0839C176.033 86.4466 180.38 90.7938 185.743 90.7938Z" fill="#487CD6" stroke="#084ABB" stroke-width="0.704597" stroke-linecap="round" stroke-linejoin="round"/>
<path d="M252.109 50.8685C257.472 50.8685 261.819 46.5213 261.819 41.1586C261.819 35.796 257.472 31.4487 252.109 31.4487C246.746 31.4487 242.399 35.796 242.399 41.1586C242.399 46.5213 246.746 50.8685 252.109 50.8685Z" fill="#487CD6" stroke="#084ABB" stroke-width="0.704597" stroke-linecap="round" stroke-linejoin="round"/>
<path d="M252.109 90.7938C257.472 90.7938 261.819 86.4466 261.819 81.0839C261.819 75.7213 257.472 71.374 252.109 71.374C246.746 71.374 242.399 75.7213 242.399 81.0839C242.399 86.4466 246.746 90.7938 252.109 90.7938Z" fill="#487CD6" stroke="#084ABB" stroke-width="1.40919" stroke-linecap="round" stroke-linejoin="round"/>
<path d="M318.465 50.8685C323.827 50.8685 328.175 46.5213 328.175 41.1586C328.175 35.796 323.827 31.4487 318.465 31.4487C313.102 31.4487 308.755 35.796 308.755 41.1586C308.755 46.5213 313.102 50.8685 318.465 50.8685Z" fill="#487CD6" stroke="#084ABB" stroke-width="0.704597" stroke-linecap="round" stroke-linejoin="round"/>
<path d="M318.465 90.7938C323.827 90.7938 328.175 86.4466 328.175 81.0839C328.175 75.7213 323.827 71.374 318.465 71.374C313.102 71.374 308.755 75.7213 308.755 81.0839C308.755 86.4466 313.102 90.7938 318.465 90.7938Z" fill="#EDF0F6" stroke="#084ABB" stroke-width="0.704597" stroke-linecap="round" stroke-linejoin="round"/>
<path d="M136.26 54.3081H168.068" stroke="#084ABB" stroke-width="0.704597" stroke-linecap="round" stroke-linejoin="round"/>
<path d="M136.26 61.6436H168.068" stroke="#084ABB" stroke-width="0.704597" stroke-linecap="round" stroke-linejoin="round"/>
<path d="M136.26 68.9897H168.068" stroke="#084ABB" stroke-width="0.704597" stroke-linecap="round" stroke-linejoin="round"/>
<path d="M201.713 54.3081H233.521" stroke="#084ABB" stroke-width="0.704597" stroke-linecap="round" stroke-linejoin="round"/>
<path d="M201.713 61.6436H233.521" stroke="#084ABB" stroke-width="0.704597" stroke-linecap="round" stroke-linejoin="round"/>
<path d="M201.713 68.9897H233.521" stroke="#084ABB" stroke-width="0.704597" stroke-linecap="round" stroke-linejoin="round"/>
<path d="M271.448 54.3081H303.256" stroke="#084ABB" stroke-width="0.704597" stroke-linecap="round" stroke-linejoin="round"/>
<path d="M271.448 61.6436H303.256" stroke="#084ABB" stroke-width="0.704597" stroke-linecap="round" stroke-linejoin="round"/>
<path d="M271.448 68.9897H303.256" stroke="#084ABB" stroke-width="0.704597" stroke-linecap="round" stroke-linejoin="round"/>
<path d="M136.26 95.8467H168.068" stroke="#084ABB" stroke-width="0.704597" stroke-linecap="round" stroke-linejoin="round"/>
<path d="M136.26 103.192H168.068" stroke="#084ABB" stroke-width="0.704597" stroke-linecap="round" stroke-linejoin="round"/>
<path d="M136.26 110.528H168.068" stroke="#084ABB" stroke-width="0.704597" stroke-linecap="round" stroke-linejoin="round"/>
<path d="M201.713 95.8467H233.521" stroke="#084ABB" stroke-width="0.704597" stroke-linecap="round" stroke-linejoin="round"/>
<path d="M201.713 103.192H233.521" stroke="#084ABB" stroke-width="0.704597" stroke-linecap="round" stroke-linejoin="round"/>
<path d="M201.713 110.528H233.521" stroke="#084ABB" stroke-width="0.704597" stroke-linecap="round" stroke-linejoin="round"/>
<path d="M271.448 95.8467H303.256" stroke="#084ABB" stroke-width="0.704597" stroke-linecap="round" stroke-linejoin="round"/>
<path d="M271.448 103.192H303.256" stroke="#084ABB" stroke-width="0.704597" stroke-linecap="round" stroke-linejoin="round"/>
<path d="M271.448 110.528H303.256" stroke="#084ABB" stroke-width="0.704597" stroke-linecap="round" stroke-linejoin="round"/>
<path d="M232.953 81.5811H238.98" stroke="#084ABB" stroke-width="0.704597" stroke-linecap="round" stroke-linejoin="round"/>
<path d="M252.748 69.5378V62.0093" stroke="#084ABB" stroke-width="0.704597" stroke-linecap="round" stroke-linejoin="round"/>
<path d="M239.406 70.3999L243.282 73.4133" stroke="#084ABB" stroke-width="0.704597" stroke-linecap="round" stroke-linejoin="round"/>
<path d="M244.144 89.3228L239.406 91.91" stroke="#084ABB" stroke-width="0.704597" stroke-linecap="round" stroke-linejoin="round"/>
<path d="M272.969 81.5811H266.943" stroke="#084ABB" stroke-width="0.704597" stroke-linecap="round" stroke-linejoin="round"/>
<path d="M266.506 70.3999L262.641 73.4133" stroke="#084ABB" stroke-width="0.704597" stroke-linecap="round" stroke-linejoin="round"/>
<path d="M248.061 101.528L253.134 119.649" stroke="#084ABB" stroke-width="0.704597" stroke-linecap="round" stroke-linejoin="round"/>
<path d="M242.977 99.3472L245.879 108.773" stroke="#084ABB" stroke-width="0.704597" stroke-linecap="round" stroke-linejoin="round"/>
<path d="M368.009 271.924C368.009 271.924 343.912 227.483 340.482 219.691C337.053 211.899 334.465 199.622 333.623 196.253C332.405 192.301 332.293 188.09 333.299 184.078C334.567 178.396 333.816 162.182 334.384 158.459C334.952 154.735 332.649 143.087 331.34 136.563C330.032 130.039 327.069 125.402 323.071 124.895C321.909 124.756 320.73 124.906 319.639 125.333C318.549 125.76 317.581 126.449 316.821 127.34C316.821 127.34 315.157 113.45 313.544 110.569C311.931 107.687 306.675 108.103 303.864 108.793C301.054 109.483 299.705 118.473 299.705 118.473C299.705 118.473 297.269 109.838 297.198 105.983C297.127 102.127 292.44 98.8092 288.787 99.7224C285.135 100.636 283.166 102.31 282.172 110.305C281.178 118.3 283.055 130.668 283.055 130.668L281.157 131.439C281.157 131.439 274.319 107.494 272.148 101.173C269.976 94.8522 267.886 87.618 266.425 82.9101C264.964 78.2023 262.793 70.7347 256.817 71.8812C250.84 73.0277 252.312 86.0859 252.312 86.0859C252.312 86.0859 261.656 126.102 262.143 129.258C262.63 132.413 264.173 143.371 263.868 147.024C263.564 150.677 263.574 160.214 263.574 160.214L254.676 149.601C253.579 146.73 252.196 143.976 250.546 141.383C247.502 136.472 240.735 131.896 236.342 133.266C231.948 134.635 235.418 139.161 237.234 141.687C239.051 144.213 240.522 151.306 240.522 154.877C240.522 158.449 243.566 160.965 247.239 167.519C250.912 174.074 269.347 196.72 272.137 200.799C274.204 203.54 276.802 205.835 279.777 207.546C279.777 207.546 290.431 216.83 295.403 228.417C300.374 240.004 315.624 273.273 315.624 273.273" fill="#EDF0F6"/>
<mask id="mask1_151_3621" style="mask-type:luminance" maskUnits="userSpaceOnUse" x="234" y="71" width="135" height="203">
<path d="M368.009 271.924C368.009 271.924 343.912 227.483 340.482 219.691C337.053 211.899 334.465 199.622 333.623 196.253C332.405 192.301 332.293 188.09 333.299 184.078C334.567 178.396 333.816 162.182 334.384 158.459C334.952 154.735 332.649 143.087 331.34 136.563C330.032 130.039 327.069 125.402 323.071 124.895C321.909 124.756 320.73 124.906 319.639 125.333C318.549 125.76 317.581 126.449 316.821 127.34C316.821 127.34 315.157 113.45 313.544 110.569C311.931 107.687 306.675 108.103 303.864 108.793C301.054 109.483 299.705 118.473 299.705 118.473C299.705 118.473 297.269 109.838 297.198 105.983C297.127 102.127 292.44 98.8092 288.787 99.7224C285.135 100.636 283.166 102.31 282.172 110.305C281.178 118.3 283.055 130.668 283.055 130.668L281.157 131.439C281.157 131.439 274.319 107.494 272.148 101.173C269.976 94.8522 267.886 87.618 266.425 82.9101C264.964 78.2023 262.793 70.7347 256.817 71.8812C250.84 73.0277 252.312 86.0859 252.312 86.0859C252.312 86.0859 261.656 126.102 262.143 129.258C262.63 132.413 264.173 143.371 263.868 147.024C263.564 150.677 263.574 160.214 263.574 160.214L254.676 149.601C253.579 146.73 252.196 143.976 250.546 141.383C247.502 136.472 240.735 131.896 236.342 133.266C231.948 134.635 235.418 139.161 237.234 141.687C239.051 144.213 240.522 151.306 240.522 154.877C240.522 158.449 243.566 160.965 247.239 167.519C250.912 174.074 269.347 196.72 272.137 200.799C274.204 203.54 276.802 205.835 279.777 207.546C279.777 207.546 290.431 216.83 295.403 228.417C300.374 240.004 315.624 273.273 315.624 273.273" fill="white"/>
</mask>
<g mask="url(#mask1_151_3621)">
<g style="mix-blend-mode:multiply" opacity="0.7">
<path d="M331.523 261.351C336.505 256.785 337.743 219.904 337.113 206.176C337.113 206.064 337.113 205.933 337.113 205.811C335.338 201.225 333.958 197.501 333.643 196.253C332.425 192.3 332.313 188.09 333.319 184.078C334.587 178.396 333.836 162.182 334.404 158.459C334.739 156.257 334.059 151.245 333.187 146.172C329.575 145.857 322.96 149.114 322.96 149.114C322.96 149.114 317.744 141.525 314.345 141.261C310.946 140.997 305.052 146.334 305.052 146.334C305.052 146.334 301.673 134.95 294.733 136.117C287.793 137.283 285.845 136.117 283.105 136.238C280.366 136.36 278.144 129.694 275.404 123.15C272.665 116.606 268.738 92.1329 266.415 87.0598C266.415 87.0598 262.772 76.8527 258.054 80.2517C253.336 83.6507 257.77 94.7608 259.982 101.427C262.194 108.093 263.381 120.755 265.177 126.792C267.206 133.519 266.192 143.513 268.048 150.839C269.905 158.164 274.674 160.539 272.046 170.117C269.418 179.695 263.675 176.641 257.273 171.009C250.871 165.378 247.705 152.482 244.083 153.761C242.828 154.078 241.615 154.545 240.471 155.151C240.552 158.661 243.515 161.239 247.188 167.651C250.861 174.063 269.347 196.72 272.137 200.799C274.203 203.539 276.802 205.834 279.777 207.546C279.777 207.546 290.431 216.83 295.402 228.417C296.295 230.497 297.716 233.571 299.461 237.223C301.49 238.847 297.188 231.136 298.243 232.414C305.275 240.663 326.551 265.927 331.523 261.351Z" fill="#487CD6"/>
</g>
</g>
<path d="M368.009 271.924C368.009 271.924 343.912 227.483 340.482 219.691C337.053 211.899 334.465 199.622 333.623 196.253C332.405 192.301 332.293 188.09 333.299 184.078C334.567 178.396 333.816 162.182 334.384 158.459C334.952 154.735 332.649 143.087 331.34 136.563C330.032 130.039 327.069 125.402 323.071 124.895C321.909 124.756 320.73 124.906 319.639 125.333C318.549 125.76 317.581 126.449 316.821 127.34C316.821 127.34 315.157 113.45 313.544 110.569C311.931 107.687 306.675 108.103 303.864 108.793C301.054 109.483 299.705 118.473 299.705 118.473C299.705 118.473 297.269 109.838 297.198 105.983C297.127 102.127 292.44 98.8092 288.787 99.7224C285.135 100.636 283.166 102.31 282.172 110.305C281.178 118.3 283.055 130.668 283.055 130.668L281.157 131.439C281.157 131.439 274.319 107.494 272.148 101.173C269.976 94.8522 267.886 87.618 266.425 82.9101C264.964 78.2023 262.793 70.7347 256.817 71.8812C250.84 73.0277 252.312 86.0859 252.312 86.0859C252.312 86.0859 261.656 126.102 262.143 129.258C262.63 132.413 264.173 143.371 263.868 147.024C263.564 150.677 263.574 160.214 263.574 160.214L254.676 149.601C253.579 146.73 252.196 143.976 250.546 141.383C247.502 136.472 240.735 131.896 236.342 133.266C231.948 134.635 235.418 139.161 237.234 141.687C239.051 144.213 240.522 151.306 240.522 154.877C240.522 158.449 243.566 160.965 247.239 167.519C250.912 174.074 269.347 196.72 272.137 200.799C274.204 203.54 276.802 205.835 279.777 207.546C279.777 207.546 290.431 216.83 295.403 228.417C300.374 240.004 315.624 273.273 315.624 273.273" stroke="#084ABB" stroke-width="0.704597" stroke-linecap="round" stroke-linejoin="round"/>
<path d="M253.651 74.7832C253.651 74.7832 254.757 81.642 254.97 82.5045C255.447 84.4424 263.462 83.5191 264.102 82.0276C264.67 80.6984 264.254 77.8169 264.254 77.8169" stroke="#084ABB" stroke-width="0.704597" stroke-linecap="round" stroke-linejoin="round"/>
<path d="M239.923 142.002C240.59 141.324 241.003 140.438 241.094 139.492C241.184 138.546 240.946 137.598 240.42 136.807C238.533 133.996 237.478 133.367 237.478 133.367" stroke="#084ABB" stroke-width="0.704597" stroke-linecap="round" stroke-linejoin="round"/>
<path d="M262.925 114.526C262.925 114.526 266.506 115.723 269.875 111.31" stroke="#084ABB" stroke-width="0.528447" stroke-linecap="round" stroke-linejoin="round"/>
<path d="M263.351 111.411C263.351 111.411 268.13 107.829 271.782 108.124" stroke="#084ABB" stroke-width="0.528447" stroke-linecap="round" stroke-linejoin="round"/>
<path d="M258.399 92.6911C258.399 92.6911 261.981 89.1197 264.852 89.8908" stroke="#084ABB" stroke-width="0.528447" stroke-linecap="round" stroke-linejoin="round"/>
<path d="M261.768 91.8489C263.24 92.0965 264.748 92.0273 266.192 91.646" stroke="#084ABB" stroke-width="0.528447" stroke-linecap="round" stroke-linejoin="round"/>
<path d="M299.694 118.503L301.582 129.674" stroke="#084ABB" stroke-width="0.704597" stroke-linecap="round" stroke-linejoin="round"/>
<path d="M316.811 127.371L318.83 139.1" stroke="#084ABB" stroke-width="0.704597" stroke-linecap="round" stroke-linejoin="round"/>
<path d="M263.564 160.285C263.564 160.285 263.057 169.062 263.899 172.461" stroke="#084ABB" stroke-width="0.704597" stroke-linecap="round" stroke-linejoin="round"/>
<path d="M301.592 135.62C301.592 135.62 303.672 141.129 303.164 144.751" stroke="#084ABB" stroke-width="0.528447" stroke-linecap="round" stroke-linejoin="round"/>
<path d="M318.607 141.312C318.607 141.312 320.017 144.152 319.175 149.327" stroke="#084ABB" stroke-width="0.528447" stroke-linecap="round" stroke-linejoin="round"/>
<path d="M77.5131 125.382C77.5131 125.382 86.1272 123.82 90.8148 118.087C95.5023 112.354 106.724 105.039 110.377 103.74C114.029 102.442 119.772 102.168 121.862 103.994C123.952 105.82 124.987 110.254 121.862 115.48C118.737 120.705 105.994 125.616 103.335 127.99C100.677 130.364 98.3839 131.906 95.2182 138.948C92.137 145.769 87.7012 151.893 82.1804 156.947C77.2189 161.381 68.0975 168.95 63.3998 171.811" fill="#EDF0F6"/>
<mask id="mask2_151_3621" style="mask-type:luminance" maskUnits="userSpaceOnUse" x="63" y="102" width="61" height="70">
<path d="M77.5131 125.382C77.5131 125.382 86.1272 123.82 90.8148 118.087C95.5023 112.354 106.724 105.039 110.377 103.74C114.029 102.442 119.772 102.168 121.862 103.994C123.952 105.82 124.987 110.254 121.862 115.48C118.737 120.705 105.994 125.616 103.335 127.99C100.677 130.364 98.3839 131.906 95.2182 138.948C92.137 145.769 87.7012 151.893 82.1804 156.947C77.2189 161.381 68.0975 168.95 63.3998 171.811" fill="white"/>
</mask>
<g mask="url(#mask2_151_3621)">
<g style="mix-blend-mode:multiply" opacity="0.7">
<path d="M103.244 118.828C102.158 113.968 95.1268 116.667 95.1268 116.667C90.3387 121.863 84.4439 125.916 77.8783 128.528C66.8886 132.683 56.2686 137.757 46.1309 143.696C47.2875 141.373 48.5457 139.029 49.9053 136.594C56.9163 124.195 69.3149 107.484 76.2853 105.323C80.5873 104.004 84.8792 106.734 87.5578 109.047L87.8622 58.8232H87.6897C83.5094 59.6045 80.3844 61.6946 79.867 64.3022C79.3495 66.9098 71.5166 83.3364 68.9091 86.4716C66.3015 89.6068 57.9512 101.082 57.1699 105.252C56.698 108.217 55.6353 111.056 54.0449 113.603C53.0303 115.165 44.6495 127.939 38.6531 139.425C32.6567 150.91 30.0796 164.658 30.1811 165.439C30.2521 166.008 18.6448 208.053 11.2686 234.515C17.3563 222.542 26.8227 203.173 32.5756 188.857C34.8382 188.634 39.2213 182.505 42.8536 177.513C47.1658 171.588 53.6289 169.965 66.5754 160.265C79.522 150.565 94.0615 137.081 96.2226 131.693C98.3838 126.306 104.319 123.678 103.244 118.828Z" fill="#487CD6"/>
</g>
</g>
<path d="M77.5131 125.382C77.5131 125.382 86.1272 123.82 90.8148 118.087C95.5023 112.354 106.724 105.039 110.377 103.74C114.029 102.442 119.772 102.168 121.862 103.994C123.952 105.82 124.987 110.254 121.862 115.48C118.737 120.705 105.994 125.616 103.335 127.99C100.677 130.364 98.3839 131.906 95.2182 138.948C92.137 145.769 87.7012 151.893 82.1804 156.947C77.2189 161.381 68.0975 168.95 63.3998 171.811" stroke="#084ABB" stroke-width="0.704597" stroke-linecap="round" stroke-linejoin="round"/>
<path d="M122.116 113.44C120.553 115.784 116.637 116.048 116.637 116.048C116.637 116.048 115.074 112.659 114.029 110.569C113.215 109.162 112.047 107.994 110.641 107.18C110.641 107.18 111.949 103.791 114.557 103.791" stroke="#084ABB" stroke-width="0.704597" stroke-linecap="round" stroke-linejoin="round"/>
<path d="M20.0046 178.294C29.6308 176.209 39.4906 175.407 49.3271 175.91C65.977 176.712 69.934 186.219 69.934 186.219L69.1426 207.617C69.1426 207.617 60.4271 201.276 42.1943 198.901C23.9616 196.527 14.4547 198.11 14.4547 198.11L20.0046 178.294Z" fill="#EDF0F6" stroke="#084ABB" stroke-width="0.704597" stroke-linecap="round" stroke-linejoin="round"/>
<path d="M70.0964 278.143L74.3882 209.464C46.6485 192.814 14.4547 198.11 14.4547 198.11L-12.9401 278.143H70.0964Z" fill="#084ABB" stroke="#084ABB" stroke-width="0.704597" stroke-linecap="round" stroke-linejoin="round"/>
<path d="M286.596 225.383C286.596 225.383 289.305 214.567 304.179 205.77C319.053 196.974 341.385 200.362 341.385 200.362L344.764 209.149C344.764 209.149 326.501 208.479 312.976 215.917C299.451 223.354 292.683 232.15 292.683 232.15L286.596 225.383Z" fill="#EDF0F6" stroke="#084ABB" stroke-width="0.704597" stroke-linecap="round" stroke-linejoin="round"/>
<path d="M387.297 278.143L347.158 206.389C347.158 206.389 331.939 202.392 313.676 209.829C295.413 217.266 287.966 231.471 287.966 231.471L295.646 278.143H387.297Z" fill="#084ABB" stroke="#084ABB" stroke-width="0.704597" stroke-linecap="round" stroke-linejoin="round"/>
<path d="M296.681 233.642C297.188 235.823 296.58 237.832 295.301 238.126C294.023 238.421 292.582 236.899 292.075 234.717C291.567 232.536 292.176 230.527 293.444 230.233C294.713 229.938 296.164 231.46 296.681 233.642Z" fill="#EDF0F6"/>
</svg>
